{
	"accessors" : 
	[
		{
			"bufferView" : 2,
			"byteOffset" : 0,
			"componentType" : 5126,
			"count" : 9984,
			"max" : 
			[
				1,
				1,
				1,
				1
			],
			"min" : 
			[
				5.692175545846112e-05,
				0.006584956776350737,
				0,
				1
			],
			"name" : "accessor_color_m0-PolyPaper21_-140566",
			"type" : "VEC4"
		},
		{
			"bufferView" : 2,
			"byteOffset" : 159744,
			"componentType" : 5126,
			"count" : 5520,
			"max" : 
			[
				1,
				1,
				1,
				1
			],
			"min" : 
			[
				0.006584956776350737,
				0.006584956776350737,
				0,
				1
			],
			"name" : "accessor_color_m1-PolyPaper13_-140692",
			"type" : "VEC4"
		},
		{
			"bufferView" : 0,
			"byteOffset" : 0,
			"componentType" : 5123,
			"count" : 14520,
			"max" : 
			[
				9983
			],
			"min" : 
			[
				0
			],
			"name" : "accessor_indices_0_m0-PolyPaper21_-140566",
			"type" : "SCALAR"
		},
		{
			"bufferView" : 0,
			"byteOffset" : 29040,
			"componentType" : 5123,
			"count" : 7884,
			"max" : 
			[
				5519
			],
			"min" : 
			[
				0
			],
			"name" : "accessor_indices_0_m1-PolyPaper13_-140692",
			"type" : "SCALAR"
		},
		{
			"bufferView" : 1,
			"byteOffset" : 119808,
			"componentType" : 5126,
			"count" : 9984,
			"max" : 
			[
				0.9743865,
				1,
				0.9743487
			],
			"min" : 
			[
				-0.9743865,
				-1,
				-0.9743487
			],
			"name" : "accessor_normal_m0-PolyPaper21_-140566",
			"type" : "VEC3"
		},
		{
			"bufferView" : 1,
			"byteOffset" : 305856,
			"componentType" : 5126,
			"count" : 5520,
			"max" : 
			[
				0.9743883,
				1,
				0.9743481000000001
			],
			"min" : 
			[
				-0.9743883,
				-1,
				-0.9743403
			],
			"name" : "accessor_normal_m1-PolyPaper13_-140692",
			"type" : "VEC3"
		},
		{
			"bufferView" : 1,
			"byteOffset" : 0,
			"componentType" : 5126,
			"count" : 9984,
			"max" : 
			[
				-1.130031,
				1.690276,
				-1.76
			],
			"min" : 
			[
				-1.990031,
				0.9599723999999999,
				-2.62
			],
			"name" : "accessor_position_m0-PolyPaper21_-140566",
			"type" : "VEC3"
		},
		{
			"bufferView" : 1,
			"byteOffset" : 239616,
			"componentType" : 5126,
			"count" : 5520,
			"max" : 
			[
				-1.050039,
				1.702141,
				-1.670024
			],
			"min" : 
			[
				-2.090039,
				0.9400229,
				-2.710024
			],
			"name" : "accessor_position_m1-PolyPaper13_-140692",
			"type" : "VEC3"
		}
	],
	"asset" : 
	{
		"copyright" : "Unknown",
		"generator" : "glTF 1-to-2 Upgrader for Google Blocks",
		"version" : "2.0"
	},
	"bufferViews" : 
	[
		{
			"buffer" : 0,
			"byteLength" : 44808,
			"byteOffset" : 0,
			"name" : "ushortBufferView",
			"target" : 34963
		},
		{
			"buffer" : 0,
			"byteLength" : 372096,
			"byteOffset" : 44808,
			"byteStride" : 12,
			"name" : "vec3BufferView",
			"target" : 34962
		},
		{
			"buffer" : 0,
			"byteLength" : 248064,
			"byteOffset" : 416904,
			"byteStride" : 16,
			"name" : "vec4BufferView",
			"target" : 34962
		}
	],
	"buffers" : 
	[
		{
			"byteLength" : 664968,
			"name" : "model",
			"uri" : "model.bin"
		}
	],
	"materials" : 
	[
		{
			"alphaMode" : "OPAQUE",
			"doubleSided" : false,
			"name" : "BlocksPaper",
			"pbrMetallicRoughness" : 
			{
				"baseColorFactor" : 
				[
					1,
					1,
					1,
					1
				],
				"metallicFactor" : 0,
				"roughnessFactor" : 0.6
			}
		},
		{
			"alphaMode" : "BLEND",
			"doubleSided" : false,
			"name" : "BlocksGlass",
			"pbrMetallicRoughness" : 
			{
				"baseColorFactor" : 
				[
					0.2,
					0.2,
					1,
					0.3
				],
				"metallicFactor" : 1,
				"roughnessFactor" : 0.4
			}
		},
		{
			"alphaMode" : "OPAQUE",
			"doubleSided" : true,
			"name" : "BlocksGem",
			"pbrMetallicRoughness" : 
			{
				"baseColorFactor" : 
				[
					1,
					0.4,
					1,
					1
				],
				"metallicFactor" : 0,
				"roughnessFactor" : 0.1
			}
		}
	],
	"meshes" : 
	[
		{
			"name" : "mesh_m0-PolyPaper21_-140566",
			"primitives" : 
			[
				{
					"attributes" : 
					{
						"COLOR_0" : 0,
						"NORMAL" : 4,
						"POSITION" : 6
					},
					"indices" : 2,
					"material" : 0,
					"mode" : 4
				}
			]
		},
		{
			"name" : "mesh_m1-PolyPaper13_-140692",
			"primitives" : 
			[
				{
					"attributes" : 
					{
						"COLOR_0" : 1,
						"NORMAL" : 5,
						"POSITION" : 7
					},
					"indices" : 3,
					"material" : 0,
					"mode" : 4
				}
			]
		}
	],
	"nodes" : 
	[
		{
			"matrix" : 
			[
				1,
				0,
				0,
				0,
				0,
				1,
				0,
				0,
				0,
				0,
				1,
				0,
				0,
				0,
				0,
				1
			],
			"mesh" : 1,
			"name" : "node_MeshObject-1336335424-PolyPaper13"
		},
		{
			"matrix" : 
			[
				1,
				0,
				0,
				0,
				0,
				1,
				0,
				0,
				0,
				0,
				1,
				0,
				0,
				0,
				0,
				1
			],
			"mesh" : 0,
			"name" : "node_MeshObject-1855055488-PolyPaper21"
		}
	],
	"scene" : 0,
	"scenes" : 
	[
		{
			"extras" : {},
			"name" : "defaultScene",
			"nodes" : 
			[
				1,
				0
			]
		}
	]
}